PathFileType	4	(x/y/z)	S06_M20_T18
DataRate	CameraRate	NumFrames	NumMarkers	Units	OrigDataRate	OrigDataStartFrame	OrigNumFrames
240	240	11	51	mm	240	421	481
Frame#	Time	Sternum			R.Acromium			L.Acromium			Top.Head			R.ASIS			L.ASIS			R.PSIS			L.PSIS			R.Great.Tro			L.Great.Tro			R.Iliac.Crest			L.Iliac.Crest			V.Sacral			R.Thigh.Upper.Post			R.Thigh.Lower.Ant			R.Thigh.Lower.Post			R.Thigh.Upper.Ant			R.Knee.Lat			R.Knee.Med			R.Shank.Upper.Post			R.Shank.Lower.Ant			R.Shank.Lower.Post			R.Shank.Upper.Ant			R.Ankle.Lat			R.Ankle.Med			R.Heel.Upper			R.Heel.Med			R.Heel.Lat			R.Toe.Lat			R.Toe.Med			R.Toe.Tip			L.Thigh.Upper.Post			L.Thigh.Lower.Ant			L.Thigh.Lower.Post			L.Thigh.Upper.Ant			L.Knee.Lat			L.Knee.Med			L.Shank.Upper.Post			L.Shank.Lower.Ant			L.Shank.Lower.Post			L.Shank.Upper.Ant			L.Ankle.Lat			L.Ankle.Med			L.Heel.Upper			L.Heel.Med			L.Heel.Lat			L.Toe.Lat			L.Toe.Med			L.Toe.Tip			Cervical.Spine			Back			
		X1	Y1	Z1	X2	Y2	Z2	X3	Y3	Z3	X4	Y4	Z4	X5	Y5	Z5	X6	Y6	Z6	X7	Y7	Z7	X8	Y8	Z8	X9	Y9	Z9	X10	Y10	Z10	X11	Y11	Z11	X12	Y12	Z12	X13	Y13	Z13	X14	Y14	Z14	X15	Y15	Z15	X16	Y16	Z16	X17	Y17	Z17	X18	Y18	Z18	X19	Y19	Z19	X20	Y20	Z20	X21	Y21	Z21	X22	Y22	Z22	X23	Y23	Z23	X24	Y24	Z24	X25	Y25	Z25	X26	Y26	Z26	X27	Y27	Z27	X28	Y28	Z28	X29	Y29	Z29	X30	Y30	Z30	X31	Y31	Z31	X32	Y32	Z32	X33	Y33	Z33	X34	Y34	Z34	X35	Y35	Z35	X36	Y36	Z36	X37	Y37	Z37	X38	Y38	Z38	X39	Y39	Z39	X40	Y40	Z40	X41	Y41	Z41	X42	Y42	Z42	X43	Y43	Z43	X44	Y44	Z44	X45	Y45	Z45	X46	Y46	Z46	X47	Y47	Z47	X48	Y48	Z48	X49	Y49	Z49	X50	Y50	Z50	X51	Y51	Z51	

421	1.75	722.7	1287.1	287.97	595.72	1492.8	454.11	587.09	1493.7	103.09	666.93	1804.6	274.73	684.18	1050.6	407.9	687.06	1046.8	154.92	485.82	1067.3	315.09	485.95	1073.9	234.28	633.42	976.34	458.7	582.62	981.18	100.88	597.96	1121	440.54	618.58	1121.4	118.81	472.27	1036.3	276.5	728.07	745.96	459.87	809.73	693.32	425.33	750.79	660.79	442.1	787.39	781.37	436.6	811.92	568.73	432.42	815.71	568.78	304.04	782.26	342.22	439.37	846.42	282.07	423.49	783.61	265.05	427.55	845.66	357.74	433.98	824.77	132.89	409.32	842.81	140.59	325.28	771.57	75.601	358.35	788.47	47.964	328.08	783.94	46.261	393.15	956.16	71.483	442.85	984.01	89.906	328.09	1041.4	118.74	376.74	580.46	721.7	137.53	614.82	633.14	195.27	543.68	641.28	160.48	645.73	719.56	168.79	501.23	550.01	181.61	534.98	556.1	299.42	413.81	330.99	210.9	467.58	260.16	211.2	399.59	262.37	233.47	478.41	328.73	194.95	426.42	115.56	239.79	444.74	138.58	323.24	344.86	81.726	288.72	348.75	53.856	319.78	348.48	57.166	258.08	526.53	44.408	216.42	548.74	43.094	334.34	622.09	47.061	278.93	540.52	1545.9	278.98	482.38	1271.4	277.28
422	1.7542	728.06	1286.3	288	601.12	1491.9	454.26	592.48	1493	103.21	672.35	1803.9	274.99	689.53	1049.7	407.84	692.1	1045.9	154.88	491.09	1066.6	315.21	491.17	1073.2	234.41	638.77	975.54	458.74	587.45	980.58	100.91	603.3	1120.2	440.57	623.74	1120.6	118.84	477.51	1035.6	276.62	733.03	745.01	459.65	814.68	692.47	424.95	755.75	659.89	441.64	792.33	780.49	436.43	817.2	568.08	431.8	821.21	568.34	303.39	791.89	340.91	438.06	857.46	282.17	422.51	794.96	263.78	426.02	855.03	357.76	433.16	839.23	132.48	407.79	857.57	140.95	323.9	787.57	74.139	356.41	805.28	47.101	326.02	800.55	44.846	391.02	971.93	73.764	441.58	999.72	93.768	327.09	1056.2	123.55	376.18	583.83	721.32	137.49	617.88	632.54	195.09	546.65	641.07	160.48	649.16	718.83	168.57	503.77	550.01	181.7	537.78	555.87	299.44	415.25	331.43	211.08	468.65	260.32	211.3	400.7	262.88	233.67	479.82	328.83	195.07	426.76	115.88	240	445.31	138.82	323.41	345.13	82.231	288.92	348.94	54.327	319.95	348.64	57.679	258.25	526.59	44.44	216.48	548.87	43.021	334.4	622.22	46.807	278.96	545.94	1545.2	279.13	487.69	1270.7	277.34
423	1.7583	733.43	1285.5	288.03	606.53	1491	454.42	597.89	1492.3	103.34	677.78	1803.1	275.26	694.92	1048.8	407.79	697.15	1045	154.85	496.39	1065.9	315.34	496.42	1072.5	234.55	644.13	974.73	458.78	592.3	979.97	100.95	608.65	1119.4	440.61	628.92	1119.9	118.87	482.77	1034.9	276.74	737.95	744.01	459.43	819.58	691.55	424.57	760.64	658.95	441.18	797.24	779.55	436.28	822.37	567.36	431.17	826.64	567.85	302.72	801.42	339.63	436.73	868.35	282.33	421.51	806.2	262.59	424.48	864.27	357.79	432.32	853.54	132.2	406.25	872.17	141.46	322.51	803.46	72.845	354.44	821.97	46.431	323.93	817.04	43.607	388.87	987.47	76.186	440.33	1015.2	97.797	326.14	1070.7	128.48	375.69	587.22	720.95	137.46	620.97	631.95	194.89	549.65	640.87	160.48	652.62	718.09	168.33	506.36	550.01	181.78	540.63	555.65	299.46	416.72	331.88	211.26	469.73	260.49	211.39	401.84	263.41	233.86	481.26	328.94	195.17	427.12	116.22	240.2	445.89	139.08	323.55	345.41	82.771	289.1	349.12	54.837	320.1	348.81	58.223	258.4	526.67	44.469	216.53	548.99	42.96	334.46	622.35	46.563	279	551.37	1544.5	279.29	493	1270	277.42
424	1.7625	738.83	1284.7	288.06	611.96	1490.2	454.57	603.3	1491.6	103.47	683.22	1802.4	275.54	700.33	1048	407.74	702.22	1044.1	154.84	501.71	1065.1	315.48	501.69	1071.8	234.7	649.5	973.9	458.82	597.17	979.35	100.99	614	1118.6	440.66	634.12	1119.1	118.91	488.05	1034.1	276.88	742.82	742.97	459.22	824.43	690.57	424.2	765.46	657.96	440.7	802.12	778.54	436.14	827.44	566.59	430.52	832	567.32	302.03	810.86	338.38	435.38	879.1	282.52	420.49	817.32	261.47	422.94	873.37	357.83	431.46	867.68	132.05	404.71	886.6	142.09	321.12	819.2	71.719	352.45	838.5	45.952	321.82	833.38	42.546	386.69	1002.8	78.744	439.1	1030.4	101.98	325.23	1085	133.54	375.26	590.65	720.58	137.42	624.07	631.36	194.68	552.7	640.68	160.47	656.11	717.36	168.09	508.99	550.02	181.86	543.52	555.42	299.46	418.22	332.35	211.42	470.84	260.67	211.47	403	263.96	234.03	482.73	329.07	195.26	427.48	116.57	240.37	446.49	139.35	323.68	345.71	83.347	289.25	349.32	55.387	320.24	348.99	58.797	258.53	526.74	44.492	216.58	549.11	42.911	334.5	622.47	46.328	279.03	556.82	1543.7	279.45	498.33	1269.3	277.5
425	1.7667	744.24	1283.8	288.09	617.4	1489.3	454.73	608.72	1490.9	103.6	688.67	1801.6	275.83	705.77	1047.1	407.7	707.31	1043.2	154.84	507.06	1064.4	315.64	506.99	1071.1	234.87	654.89	973.05	458.87	602.08	978.74	101.05	619.37	1117.8	440.72	639.34	1118.3	118.95	493.36	1033.4	277.03	747.66	741.88	459	829.23	689.52	423.83	770.21	656.92	440.2	806.99	777.47	436.03	832.42	565.76	429.84	837.29	566.74	301.31	820.2	337.17	434.02	889.7	282.76	419.44	828.31	260.42	421.39	882.34	357.89	430.59	881.65	132.02	403.18	900.84	142.86	319.74	834.8	70.759	350.45	854.88	45.66	319.71	849.56	41.662	384.51	1017.8	81.428	437.9	1045.3	106.29	324.36	1098.9	138.69	374.88	594.11	720.22	137.38	627.19	630.78	194.46	555.78	640.49	160.46	659.64	716.64	167.84	511.66	550.03	181.92	546.46	555.19	299.45	419.74	332.84	211.57	471.96	260.87	211.52	404.18	264.53	234.18	484.22	329.21	195.32	427.86	116.94	240.52	447.1	139.65	323.78	346.02	83.962	289.38	349.52	55.981	320.35	349.18	59.405	258.64	526.82	44.512	216.62	549.23	42.874	334.54	622.59	46.103	279.05	562.27	1543	279.62	503.68	1268.5	277.59
426	1.7708	749.66	1283	288.12	622.85	1488.4	454.89	614.15	1490.2	103.73	694.14	1800.9	276.12	711.24	1046.2	407.67	712.42	1042.3	154.85	512.43	1063.6	315.81	512.31	1070.3	235.05	660.29	972.19	458.91	607	978.11	101.11	624.75	1117	440.79	644.59	1117.5	119.01	498.69	1032.6	277.2	752.46	740.75	458.77	833.99	688.41	423.46	774.91	655.84	439.67	811.83	776.35	435.92	837.32	564.87	429.15	842.52	566.13	300.56	829.45	336	432.64	900.14	283.03	418.37	839.17	259.44	419.86	891.17	357.97	429.7	895.44	132.11	401.64	914.88	143.76	318.36	850.24	69.961	348.45	871.07	45.548	317.61	865.57	40.951	382.32	1032.6	84.231	436.73	1060	110.73	323.53	1112.6	143.93	374.56	597.61	719.86	137.34	630.34	630.21	194.22	558.9	640.31	160.44	663.2	715.92	167.58	514.37	550.06	181.98	549.45	554.96	299.43	421.3	333.35	211.7	473.11	261.09	211.56	405.39	265.13	234.32	485.75	329.36	195.38	428.25	117.33	240.64	447.71	139.97	323.86	346.35	84.616	289.48	349.72	56.618	320.44	349.38	60.046	258.73	526.9	44.526	216.65	549.36	42.848	334.57	622.71	45.888	279.07	567.73	1542.3	279.79	509.04	1267.8	277.69
427	1.775	755.11	1282.1	288.15	628.31	1487.5	455.06	619.59	1489.4	103.86	699.62	1800.1	276.42	716.73	1045.3	407.65	717.55	1041.4	154.87	517.83	1062.9	315.99	517.65	1069.6	235.24	665.71	971.32	458.96	611.96	977.49	101.19	630.15	1116.2	440.88	649.86	1116.7	119.07	504.05	1031.8	277.38	757.24	739.59	458.53	838.72	687.25	423.1	779.55	654.72	439.12	816.66	775.17	435.83	842.14	563.94	428.43	847.68	565.48	299.78	838.59	334.87	431.25	910.43	283.35	417.29	849.9	258.53	418.33	899.86	358.06	428.8	909.02	132.31	400.13	928.71	144.76	317	865.49	69.321	346.45	887.06	45.607	315.52	881.38	40.412	380.16	1047.2	87.142	435.59	1074.4	115.26	322.74	1125.9	149.23	374.28	601.14	719.51	137.3	633.51	629.65	193.97	562.07	640.14	160.41	666.8	715.21	167.33	517.13	550.1	182.02	552.48	554.72	299.4	422.88	333.87	211.81	474.29	261.32	211.59	406.63	265.75	234.43	487.3	329.53	195.41	428.65	117.75	240.75	448.34	140.31	323.91	346.68	85.312	289.56	349.93	57.3	320.52	349.59	60.723	258.8	526.99	44.537	216.67	549.48	42.835	334.59	622.83	45.682	279.09	573.21	1541.5	279.96	514.42	1267	277.8
428	1.7792	760.57	1281.3	288.18	633.78	1486.6	455.22	625.03	1488.7	104	705.1	1799.3	276.72	722.26	1044.5	407.64	722.7	1040.5	154.91	523.26	1062.1	316.18	523.02	1068.8	235.45	671.15	970.45	459.01	616.94	976.86	101.27	635.58	1115.4	440.97	655.16	1115.9	119.14	509.43	1031	277.58	761.98	738.38	458.28	843.41	686.03	422.72	784.15	653.56	438.54	821.49	773.94	435.75	846.9	562.96	427.68	852.78	564.8	298.97	847.63	333.78	429.85	920.55	283.7	416.19	860.48	257.7	416.81	908.42	358.15	427.89	922.4	132.63	398.62	942.32	145.87	315.66	880.55	68.833	344.47	902.82	45.829	313.47	896.98	40.037	378.02	1061.4	90.151	434.49	1088.4	119.86	321.99	1139	154.57	374.05	604.71	719.16	137.26	636.71	629.09	193.72	565.29	639.98	160.38	670.43	714.5	167.07	519.94	550.14	182.05	555.56	554.49	299.37	424.5	334.42	211.9	475.49	261.58	211.59	407.89	266.39	234.53	488.89	329.71	195.43	429.07	118.18	240.82	448.98	140.67	323.95	347.04	86.05	289.61	350.14	58.03	320.57	349.82	61.437	258.85	527.09	44.543	216.68	549.6	42.833	334.61	622.95	45.485	279.11	578.69	1540.8	280.14	519.82	1266.2	277.91
429	1.7833	766.06	1280.5	288.21	639.27	1485.8	455.39	630.49	1488	104.14	710.61	1798.5	277.03	727.81	1043.6	407.64	727.88	1039.6	154.95	528.72	1061.3	316.4	528.42	1068	235.67	676.61	969.56	459.07	621.95	976.23	101.36	641.03	1114.6	441.08	660.49	1115.1	119.22	514.85	1030.2	277.79	766.71	737.15	458.01	848.08	684.77	422.34	788.7	652.37	437.93	826.3	772.66	435.67	851.59	561.94	426.91	857.82	564.09	298.14	856.55	332.73	428.45	930.52	284.08	415.08	870.92	256.94	415.31	916.84	358.27	426.96	935.56	133.04	397.14	955.69	147.07	314.34	895.39	68.488	342.52	918.34	46.202	311.44	912.36	39.821	375.91	1075.4	93.244	433.42	1102.2	124.52	321.28	1151.7	159.94	373.85	608.31	718.82	137.23	639.94	628.55	193.46	568.56	639.83	160.34	674.11	713.8	166.82	522.8	550.2	182.07	558.68	554.26	299.32	426.16	334.99	211.98	476.73	261.85	211.58	409.19	267.05	234.61	490.51	329.91	195.42	429.51	118.64	240.87	449.64	141.06	323.96	347.41	86.833	289.63	350.37	58.808	320.6	350.06	62.192	258.87	527.19	44.547	216.69	549.72	42.842	334.62	623.06	45.298	279.12	584.18	1540	280.32	525.24	1265.5	278.04
430	1.7875	771.56	1279.7	288.24	644.77	1484.9	455.55	635.95	1487.3	104.29	716.12	1797.8	277.34	733.39	1042.8	407.65	733.09	1038.7	155.01	534.21	1060.6	316.62	533.84	1067.3	235.91	682.11	968.67	459.12	626.99	975.61	101.46	646.52	1113.8	441.2	665.84	1114.3	119.31	520.29	1029.5	278.02	771.42	735.88	457.71	852.73	683.47	421.95	793.22	651.15	437.27	831.12	771.34	435.6	856.23	560.89	426.12	862.82	563.36	297.28	865.36	331.72	427.04	940.31	284.5	413.96	881.2	256.24	413.82	925.13	358.39	426.02	948.48	133.54	395.69	968.81	148.35	313.04	910	68.278	340.6	933.6	46.714	309.47	927.48	39.754	373.84	1089	96.406	432.39	1115.5	129.21	320.6	1164.1	165.3	373.67	611.96	718.48	137.21	643.21	628.01	193.2	571.88	639.68	160.3	677.83	713.11	166.56	525.71	550.26	182.08	561.84	554.04	299.27	427.86	335.58	212.04	477.99	262.13	211.56	410.51	267.74	234.66	492.17	330.13	195.41	429.97	119.13	240.9	450.3	141.47	323.95	347.79	87.662	289.62	350.6	59.636	320.61	350.31	62.988	258.87	527.29	44.547	216.68	549.84	42.861	334.63	623.18	45.118	279.14	589.69	1539.3	280.5	530.67	1264.7	278.18
431	1.7917	777.09	1278.9	288.28	650.29	1484	455.72	641.43	1486.6	104.44	721.64	1797	277.66	739.01	1041.9	407.67	738.34	1037.8	155.07	539.72	1059.8	316.86	539.29	1066.5	236.16	687.63	967.78	459.18	632.06	974.98	101.58	652.05	1113.1	441.33	671.23	1113.5	119.42	525.75	1028.7	278.27	776.11	734.59	457.39	857.36	682.13	421.54	797.71	649.91	436.58	835.94	769.99	435.52	860.84	559.81	425.3	867.77	562.61	296.39	874.05	330.76	425.64	949.94	284.94	412.83	891.32	255.61	412.35	933.28	358.51	425.07	961.16	134.13	394.26	981.67	149.7	311.76	924.35	68.194	338.71	948.56	47.352	307.53	942.34	39.825	371.82	1102.4	99.62	431.39	1128.6	133.9	319.95	1176.1	170.64	373.51	615.65	718.15	137.19	646.52	627.49	192.93	575.25	639.55	160.26	681.6	712.43	166.31	528.67	550.33	182.08	565.06	553.81	299.21	429.59	336.19	212.08	479.29	262.44	211.53	411.87	268.45	234.7	493.87	330.36	195.37	430.44	119.65	240.9	450.98	141.91	323.93	348.19	88.54	289.59	350.84	60.515	320.6	350.58	63.829	258.85	527.41	44.546	216.67	549.96	42.89	334.63	623.29	44.945	279.14	595.2	1538.6	280.69	536.13	1263.9	278.32
